# xmcd
#
# Track frame offsets:
# 182
# 11847
# 26010
# 47035
# 62262
# 83360
# 97502
# 114037
# 131770
# 146737
# 162232
# 174135
# 188752
# 197425
# 211032
# 223942
# 240442
#
# Disc length: 3464 seconds
#
#
# Revision: 0
# Processed by: cddbd v1.5.1PL0 Copyright (c) Steve Scherf et al.
# Submitted via: FreeRIP 2.93 
#
DISCID=cd0d8611
DTITLE=Duo EKG-M - Na vandru
DYEAR=1900
DGENRE=Country
TTITLE0=Pravidelne v sobotu
TTITLE1=Krcma Santa Puelo
TTITLE2=Touha po domove
TTITLE3=Co delas holcicko
TTITLE4=Prazdne sedlo
TTITLE5=Oharka
TTITLE6=Na severu
TTITLE7=Berounka
TTITLE8=Potlach v Americe
TTITLE9=Hoj, trampove
TTITLE10=Tukneme si vesele
TTITLE11=Vandr
TTITLE12=Tam, kde slunce zapada
TTITLE13=Trampska romance
TTITLE14=Jako stado koni
TTITLE15=Ole, o caramba
TTITLE16=Navrat z panske jizdy
EXTD=
EXTT0=
EXTT1=
EXTT2=
EXTT3=
EXTT4=
EXTT5=
EXTT6=
EXTT7=
EXTT8=
EXTT9=
EXTT10=
EXTT11=
EXTT12=
EXTT13=
EXTT14=
EXTT15=
EXTT16=
PLAYORDER=
